v 5.628856 0.000000 -6.046154
v 5.393742 0.000000 -5.722548
v 3.775708 0.000000 -6.898118
v 4.010822 0.000000 -7.221725
v 5.628856 6.000000 -6.046154
v 5.393742 6.000000 -5.722548
v 3.775708 6.000000 -6.898118
v 4.010822 6.000000 -7.221725
v 1.000000 0.000000 -8.200000
v 1.000000 0.000000 -7.800000
v -1.000000 0.000000 -7.800000
v -1.000000 0.000000 -8.200000
v 1.000001 6.000000 -8.200000
v 0.999999 6.000000 -7.800000
v -1.000000 6.000000 -7.800000
v -1.000000 6.000000 -8.200000
v -4.010822 0.000000 -7.221725
v -3.775708 0.000000 -6.898118
v -5.393743 0.000000 -5.722548
v -5.628856 0.000000 -6.046155
v -4.010822 6.000000 -7.221726
v -3.775709 6.000000 -6.898118
v -5.393743 6.000000 -5.722548
v -5.628857 6.000000 -6.046155
v -7.489647 0.000000 -3.484996
v -7.109225 0.000000 -3.361390
v -7.727259 0.000000 -1.459276
v -8.107681 0.000000 -1.582884
v -7.489647 6.000000 -3.484997
v -7.109225 6.000000 -3.361389
v -7.727260 6.000000 -1.459276
v -8.107681 6.000000 -1.582883
v -8.107681 0.000000 1.582883
v -7.727260 0.000000 1.459277
v -7.109225 0.000000 3.361390
v -7.489648 0.000000 3.484997
v -8.107682 6.000000 1.582883
v -7.727259 6.000000 1.459277
v -7.109225 6.000000 3.361390
v -7.489648 6.000000 3.484997
v -5.628858 0.000000 6.046155
v -5.393744 0.000000 5.722548
v -3.775710 0.000000 6.898119
v -4.010824 0.000000 7.221725
v -5.628858 6.000000 6.046155
v -5.393743 6.000000 5.722548
v -3.775709 6.000000 6.898119
v -4.010823 6.000000 7.221725
v -1.000001 0.000000 8.200001
v -1.000001 0.000000 7.800001
v 0.999999 0.000000 7.800002
v 0.999999 0.000000 8.200001
v -1.000002 6.000000 8.200001
v -1.000000 6.000000 7.800001
v 0.999999 6.000000 7.800002
v 0.999999 6.000000 8.200002
v 4.010822 0.000000 7.221726
v 3.775708 0.000000 6.898120
v 5.393742 0.000000 5.722549
v 5.628856 0.000000 6.046156
v 4.010821 6.000000 7.221727
v 3.775708 6.000000 6.898119
v 5.393742 6.000000 5.722549
v 5.628857 6.000000 6.046156
v 7.489647 0.000000 3.484997
v 7.109225 0.000000 3.361391
v 7.727260 0.000000 1.459277
v 8.107682 0.000000 1.582885
v 7.489647 6.000000 3.484998
v 7.109225 6.000000 3.361390
v 7.727260 6.000000 1.459277
v 8.107682 6.000000 1.582884
v 8.107683 0.000000 -1.582881
v 7.727261 0.000000 -1.459275
v 7.109227 0.000000 -3.361389
v 7.489649 0.000000 -3.484995
v 8.107683 6.000000 -1.582881
v 7.727260 6.000000 -1.459276
v 7.109227 6.000000 -3.361389
v 7.489650 6.000000 -3.484995
vn 0.0000 -1.0000 0.0000
vn 0.0000 1.0000 0.0000
vn 0.8090 -0.0000 0.5878
vn -0.5878 -0.0000 0.8090
vn -0.8090 0.0000 -0.5878
vn 0.5878 0.0000 -0.8090
vn 1.0000 -0.0000 -0.0000
vn 0.0000 0.0000 1.0000
vn -1.0000 0.0000 0.0000
vn 0.0000 0.0000 -1.0000
vn 0.8090 -0.0000 -0.5878
vn 0.5878 -0.0000 0.8090
vn -0.8090 0.0000 0.5878
vn -0.5878 -0.0000 -0.8090
vn 0.3090 -0.0000 -0.9511
vn 0.9511 -0.0000 0.3090
vn -0.3090 -0.0000 0.9511
vn -0.9511 0.0000 -0.3090
vn -0.3090 -0.0000 -0.9511
vn 0.9511 0.0000 -0.3090
vn 0.3090 0.0000 0.9511
vn -0.9511 -0.0000 0.3090
f 2//1 4//1 1//1
f 8//2 6//2 5//2
f 5//3 2//3 1//3
f 6//4 3//4 2//4
f 7//5 4//5 3//5
f 1//6 8//6 5//6
f 10//1 12//1 9//1
f 16//2 14//2 13//2
f 13//7 10//7 9//7
f 14//8 11//8 10//8
f 15//9 12//9 11//9
f 9//10 16//10 13//10
f 18//1 20//1 17//1
f 24//2 22//2 21//2
f 21//11 18//11 17//11
f 22//12 19//12 18//12
f 23//13 20//13 19//13
f 17//14 24//14 21//14
f 26//1 28//1 25//1
f 32//2 30//2 29//2
f 29//15 26//15 25//15
f 30//16 27//16 26//16
f 31//17 28//17 27//17
f 25//18 32//18 29//18
f 34//1 36//1 33//1
f 40//2 38//2 37//2
f 37//19 34//19 33//19
f 38//20 35//20 34//20
f 39//21 36//21 35//21
f 33//22 40//22 37//22
f 42//1 44//1 41//1
f 48//2 46//2 45//2
f 45//5 42//5 41//5
f 46//6 43//6 42//6
f 47//3 44//3 43//3
f 41//4 48//4 45//4
f 50//1 52//1 49//1
f 56//2 54//2 53//2
f 53//9 50//9 49//9
f 54//10 51//10 50//10
f 55//7 52//7 51//7
f 49//8 56//8 53//8
f 58//1 60//1 57//1
f 64//2 62//2 61//2
f 61//13 58//13 57//13
f 62//14 59//14 58//14
f 63//11 60//11 59//11
f 57//12 64//12 61//12
f 66//1 68//1 65//1
f 72//2 70//2 69//2
f 69//17 66//17 65//17
f 70//18 67//18 66//18
f 71//15 68//15 67//15
f 65//16 72//16 69//16
f 74//1 76//1 73//1
f 80//2 78//2 77//2
f 77//21 74//21 73//21
f 78//22 75//22 74//22
f 79//19 76//19 75//19
f 73//20 80//20 77//20
f 2//1 3//1 4//1
f 8//2 7//2 6//2
f 5//3 6//3 2//3
f 6//4 7//4 3//4
f 7//5 8//5 4//5
f 1//6 4//6 8//6
f 10//1 11//1 12//1
f 16//2 15//2 14//2
f 13//7 14//7 10//7
f 14//8 15//8 11//8
f 15//9 16//9 12//9
f 9//10 12//10 16//10
f 18//1 19//1 20//1
f 24//2 23//2 22//2
f 21//11 22//11 18//11
f 22//12 23//12 19//12
f 23//13 24//13 20//13
f 17//14 20//14 24//14
f 26//1 27//1 28//1
f 32//2 31//2 30//2
f 29//15 30//15 26//15
f 30//16 31//16 27//16
f 31//17 32//17 28//17
f 25//18 28//18 32//18
f 34//1 35//1 36//1
f 40//2 39//2 38//2
f 37//19 38//19 34//19
f 38//20 39//20 35//20
f 39//21 40//21 36//21
f 33//22 36//22 40//22
f 42//1 43//1 44//1
f 48//2 47//2 46//2
f 45//5 46//5 42//5
f 46//6 47//6 43//6
f 47//3 48//3 44//3
f 41//4 44//4 48//4
f 50//1 51//1 52//1
f 56//2 55//2 54//2
f 53//9 54//9 50//9
f 54//10 55//10 51//10
f 55//7 56//7 52//7
f 49//8 52//8 56//8
f 58//1 59//1 60//1
f 64//2 63//2 62//2
f 61//13 62//13 58//13
f 62//14 63//14 59//14
f 63//11 64//11 60//11
f 57//12 60//12 64//12
f 66//1 67//1 68//1
f 72//2 71//2 70//2
f 69//17 70//17 66//17
f 70//18 71//18 67//18
f 71//15 72//15 68//15
f 65//16 68//16 72//16
f 74//1 75//1 76//1
f 80//2 79//2 78//2
f 77//21 78//21 74//21
f 78//22 79//22 75//22
f 79//19 80//19 76//19
f 73//20 76//20 80//20
